# xmcd CD database file
#
# Track frame offsets:
#	150
#	10496
#	21608
#	27826
#	43597
#	60423
#	72421
#	93702
#	108561
#	121506
#	139606
#	159998
#	176026
#	186248
#
# Disc length: 2837 seconds
#
# Revision: 3
# Processed by: cddbd v1.5.2PL0 Copyright (c) Steve Scherf et al.
# Submitted via: CDex 1.51
#
DISCID=be0b130e,bf0b130e
DTITLE=Various Artist - White Boy's Blues Guitars CD2
DYEAR=1999
DGENRE=Blues
TTITLE0=Canned Heat - Spoonful
TTITLE1=Eric Clapton - Snake drive
TTITLE2=Eric Clapton with Jimmy Page - Choker
TTITLE3=Johnny Winter - Self destruction blues
TTITLE4=John Hammond and The Screamin' Nighthawks - Sunday blues
TTITLE5=Commander Cody and His Lost Planet Airmen:  - Workin' man's blues
TTITLE6=Peter Frampton with Keith Richards - Loving cup
TTITLE7=Rod Stewart - Bright lights big city
TTITLE8=Juicy Lucy - Who do you love
TTITLE9=Spencer Davis - Crossfire
TTITLE10=Shri - Can't find my way home
TTITLE11=The Animals - Dimples
TTITLE12=The Yardbirds - I wish you would
TTITLE13=Wolfman Jack - Stormy monday 
EXTD=YEAR: 1999
EXTT0=
EXTT1=
EXTT2=
EXTT3=
EXTT4=
EXTT5=
EXTT6=
EXTT7=
EXTT8=
EXTT9=
EXTT10=
EXTT11=
EXTT12=
EXTT13=
PLAYORDER=
